<svg width="24" height="24" viewBox="0 0 24 24" fill="none" xmlns="http://www.w3.org/2000/svg">
<g clip-path="url(#clip0)">
<path d="M12.0043 0.00250257C7.20277 0.00180272 2.86327 2.86386 0.973412 7.27779L0.823843 7.32738L0.881831 7.50134C-1.60645 13.6384 1.35138 20.6306 7.48841 23.1188C8.92176 23.7 10.454 23.9984 12.0007 23.9975C18.6267 23.9985 23.999 18.6278 24 12.0018C24.001 5.37578 18.6303 0.00345237 12.0043 0.00250257ZM21.415 18.0489L20.7989 17.4333V15.9992C20.7996 15.9373 20.7859 15.8761 20.7589 15.8204L19.1992 12.7055V11.2002C19.1992 11.0665 19.1325 10.9416 19.0213 10.8674L17.8215 10.0676C17.7275 10.0048 17.6113 9.98477 17.5016 10.0124L16.0323 10.3795L13.5644 9.32056L13.2249 6.94186L14.1659 6.00125H16.1858L16.8657 7.02304C16.9271 7.11492 17.0238 7.17736 17.1329 7.1954L19.5324 7.59532C19.5966 7.60612 19.6625 7.60087 19.7243 7.58012L21.9343 6.84348C23.7878 10.4005 23.5896 14.6786 21.415 18.0489ZM19.7655 3.94328L19.1152 4.37679L17.3024 4.01407L16.1263 3.62255C16.0543 3.5981 15.9768 3.595 15.9031 3.61375L14.4162 3.98527L13.7644 3.76812L14.2475 2.80192H15.6C15.662 2.80197 15.7232 2.78762 15.7787 2.75993L17.1624 2.06807C18.1153 2.56547 18.992 3.19694 19.7655 3.94328ZM7.62043 1.69535L8.58023 2.33522C8.62742 2.36661 8.68071 2.38761 8.7366 2.3968L10.6746 2.71994L10.4854 3.28582L9.47565 3.62295C9.38521 3.65304 9.30848 3.71443 9.25929 3.79611L8.11073 5.71011L6.26591 6.81708L3.54648 7.2054C3.34937 7.23325 3.2028 7.40186 3.20255 7.60092V8.80067C3.20255 8.90675 3.24474 9.00843 3.31972 9.08341L4.00238 9.76607V10.4531L2.33873 9.34376L1.73525 7.53333C2.88342 4.90988 4.98783 2.82232 7.62043 1.69535ZM6.48187 14.8074L4.67424 14.4455L4.00238 13.1054V12.1656L5.49247 10.6755L6.04396 11.7788C6.11169 11.9144 6.25032 12.0001 6.40188 12H8.97495L10.0583 13.8056C10.1306 13.926 10.2607 13.9995 10.4011 13.9996H11.5128L11.2329 15.4021L9.71879 16.9162C9.64366 16.9911 9.60137 17.0928 9.60122 17.1989V18.1987L8.16152 19.2785C8.06084 19.354 8.00155 19.4725 8.00155 19.5984V21.0429L7.50405 20.8782L6.8018 19.1217V15.1993C6.80185 15.0093 6.66808 14.8454 6.48187 14.8074ZM5.27972 20.9552C1.50905 18.1263 -0.0855677 13.2385 1.29135 8.73028L1.62368 9.72688C1.65167 9.81121 1.70696 9.88384 1.78084 9.93323L3.77443 11.2622L3.31972 11.7173C3.24474 11.7922 3.20255 11.8939 3.20255 12V13.1998C3.2025 13.2618 3.21685 13.323 3.24454 13.3785L4.04437 14.9782C4.09976 15.0887 4.20309 15.1673 4.32432 15.1913L6.00397 15.5269V19.1985C6.00392 19.2493 6.01356 19.2997 6.03236 19.3469L6.83219 21.3465C6.87599 21.4557 6.96567 21.5401 7.07734 21.5772L8.27709 21.9771C8.31719 21.9907 8.35918 21.9977 8.40147 21.9979C8.62232 21.9979 8.80139 21.8189 8.80139 21.598V19.7984L10.2411 18.7186C10.3418 18.6431 10.4011 18.5245 10.4011 18.3987V17.3645L11.8835 15.882C11.9393 15.8262 11.9773 15.755 11.9927 15.6776L12.3926 13.6781C12.4359 13.4614 12.2955 13.2508 12.0789 13.2075C12.0531 13.2024 12.027 13.1998 12.0007 13.1998H10.6274L9.54403 11.3941C9.47175 11.2738 9.34167 11.2002 9.2013 11.2002H6.64903L5.96198 9.82166C5.90444 9.70658 5.79506 9.6262 5.66804 9.6057C5.54106 9.58376 5.41144 9.62565 5.32131 9.71768L4.80222 10.2348V9.6005C4.80222 9.49442 4.76003 9.39275 4.68504 9.31776L4.00238 8.6351V7.94765L6.45867 7.59692C6.51141 7.58927 6.56215 7.57118 6.60784 7.54373L8.60743 6.34398C8.66351 6.31029 8.7105 6.2633 8.7442 6.20721L9.86796 4.3344L10.9273 3.98087C11.047 3.94163 11.1408 3.8478 11.1801 3.72813L11.58 2.52838C11.6493 2.31867 11.5355 2.09247 11.3258 2.02318C11.3064 2.01678 11.2866 2.01188 11.2665 2.00848L8.95175 1.62256L8.54504 1.35142C11.0617 0.532292 13.7874 0.633671 16.2362 1.63736L15.5056 2.00209H14.0003C13.848 2.00124 13.7085 2.08702 13.6404 2.22324L12.8405 3.82291C12.742 4.02057 12.8223 4.26072 13.02 4.35925C13.0369 4.36764 13.0543 4.37484 13.0721 4.38079L14.2718 4.78071C14.3438 4.80515 14.4213 4.80825 14.495 4.78951L15.9819 4.41798L17.0713 4.78071C17.0869 4.78631 17.1029 4.79061 17.1193 4.7935L19.1188 5.19342C19.2228 5.21462 19.331 5.19332 19.4192 5.13423L20.3294 4.52716C20.7773 5.02611 21.1799 5.56399 21.5323 6.13442L19.5647 6.79029L17.4344 6.43516L16.7305 5.37938C16.6568 5.26876 16.5328 5.20207 16.3998 5.20142H14.0003C13.8942 5.20142 13.7925 5.24361 13.7176 5.31859L12.5178 6.51834C12.4287 6.60738 12.3868 6.7332 12.4046 6.85787L12.8046 9.65729C12.8247 9.79571 12.9157 9.91354 13.0445 9.96803L15.8439 11.1678C15.9241 11.2025 16.0136 11.2097 16.0983 11.1882L17.5264 10.831L18.3994 11.4141V12.7998C18.3987 12.8617 18.4124 12.9229 18.4394 12.9786L19.9991 16.0935V17.5988C19.9991 17.7049 20.0412 17.8066 20.1162 17.8816L20.9529 18.7186C17.2425 23.6642 10.2253 24.6656 5.27972 20.9552Z" fill="#759ECE"/>
</g>
<defs>
<clipPath id="clip0">
<rect width="24" height="24" fill="white"/>
</clipPath>
</defs>
</svg>
