<svg width="24" height="24" viewBox="0 0 24 24" fill="none" xmlns="http://www.w3.org/2000/svg">
<path d="M8.42696 15.9799C8.3228 15.9799 8.21864 15.9403 8.13943 15.8606C7.98047 15.7016 7.98047 15.4434 8.13943 15.2844L15.285 8.13887C15.4439 7.97991 15.7016 7.97991 15.8606 8.13887C16.0195 8.29783 16.0195 8.55553 15.8606 8.71449L8.7145 15.8606C8.63529 15.9403 8.53113 15.9799 8.42696 15.9799Z" fill="#DCDCDC"/>
<path d="M15.5725 15.9799C15.4683 15.9799 15.3642 15.9403 15.285 15.8606L8.13888 8.71503C7.97992 8.55608 7.97992 8.29838 8.13888 8.13942C8.29784 7.98046 8.55554 7.98046 8.71449 8.13942L15.86 15.285C16.019 15.4439 16.019 15.7021 15.86 15.8611C15.7808 15.9403 15.6767 15.9799 15.5725 15.9799Z" fill="#DCDCDC"/>
<path d="M12 23.9999C5.38288 23.9999 0 18.617 0 12.001C0 5.3844 5.38288 0.000976562 12 0.000976562C18.6171 0.000976562 24 5.38386 24 12.001C24 18.6181 18.616 23.9999 12 23.9999ZM12 0.814757C5.83209 0.814757 0.81378 5.83307 0.81378 12.001C0.81378 18.1689 5.83209 23.1872 12 23.1872C18.1679 23.1872 23.1862 18.1689 23.1862 12.001C23.1862 5.83307 18.1679 0.814757 12 0.814757Z" fill="#DCDCDC"/>
</svg>
