<svg width="24" height="24" viewBox="0 0 24 24" fill="none" xmlns="http://www.w3.org/2000/svg">
<path d="M22.8 4.80001H17.6V3.20001C17.5986 2.09591 16.7041 1.20138 15.6 1.20001H8.4C7.2959 1.20138 6.40137 2.09591 6.4 3.20001V4.80001H1.2C0.537305 4.80001 0 5.33732 0 6.00001V14.9039C0.00253906 15.4113 0.322266 15.8627 0.8 16.0332V21.6C0.8 22.2627 1.3373 22.8 2 22.8H22C22.6627 22.8 23.2 22.2627 23.2 21.6V16.0336C23.6777 15.8629 23.9977 15.4113 24 14.9039V6.00001C24 5.33732 23.4627 4.80001 22.8 4.80001ZM7.2 3.20001C7.2 2.53732 7.7373 2.00001 8.4 2.00001H15.6C16.2627 2.00001 16.8 2.53732 16.8 3.20001V4.80001H16V3.20001C16 2.97911 15.8209 2.80001 15.6 2.80001H8.4C8.1791 2.80001 8 2.97911 8 3.20001V4.80001H7.2V3.20001ZM15.2 4.80001H8.8V3.60001H15.2V4.80001ZM22.4 21.6C22.4 21.8209 22.2209 22 22 22H2C1.7791 22 1.6 21.8209 1.6 21.6V16.1707L10.4 17.3844V18.4C10.4 19.0627 10.9373 19.6 11.6 19.6H12.4C13.0627 19.6 13.6 19.0627 13.6 18.4V17.3844L22.4 16.1707V21.6ZM12.8 18.4C12.8 18.6209 12.6209 18.8 12.4 18.8H11.6C11.3791 18.8 11.2 18.6209 11.2 18.4V16C11.2 15.7791 11.3791 15.6 11.6 15.6H12.4C12.6209 15.6 12.8 15.7791 12.8 16V18.4ZM23.2 14.9039C23.2002 15.1033 23.0535 15.2725 22.8561 15.3004L22.7451 15.3156L13.6 16.5768V16C13.6 15.3373 13.0627 14.8 12.4 14.8H11.6C10.9373 14.8 10.4 15.3373 10.4 16V16.5768L1.14434 15.3004C0.946875 15.2727 0.799805 15.1035 0.8 14.9039V6.00001C0.8 5.77911 0.979102 5.60001 1.2 5.60001H22.8C23.0209 5.60001 23.2 5.77911 23.2 6.00001V14.9039Z" fill="#DCDCDC"/>
</svg>
