<svg width="50" height="50" viewBox="0 0 50 50" fill="none" xmlns="http://www.w3.org/2000/svg">
<path d="M21.5359 6C23.0755 3.33334 26.9245 3.33333 28.4641 6L38.8564 24C40.396 26.6667 38.4715 30 35.3923 30H14.6077C11.5285 30 9.60399 26.6667 11.1436 24L21.5359 6Z" fill="url(#paint0_angular)"/>
<path d="M5.54702 36.6C5.97102 36.6 6.36302 36.716 6.72302 36.948C7.08302 37.172 7.36702 37.48 7.57502 37.872C7.79102 38.264 7.89902 38.696 7.89902 39.168C7.89902 39.64 7.79102 40.076 7.57502 40.476C7.36702 40.876 7.08302 41.192 6.72302 41.424C6.36302 41.656 5.97102 41.772 5.54702 41.772H3.29102V44.424C3.29102 44.584 3.23902 44.72 3.13502 44.832C3.03102 44.944 2.89902 45 2.73902 45C2.57102 45 2.43502 44.948 2.33102 44.844C2.23502 44.732 2.18702 44.592 2.18702 44.424V37.176C2.18702 37.016 2.24302 36.88 2.35502 36.768C2.46702 36.656 2.60302 36.6 2.76302 36.6H5.54702ZM5.54702 40.68C5.76302 40.68 5.96302 40.612 6.14702 40.476C6.33102 40.332 6.47502 40.144 6.57902 39.912C6.69102 39.68 6.74702 39.432 6.74702 39.168C6.74702 38.76 6.62702 38.416 6.38702 38.136C6.15502 37.848 5.87502 37.704 5.54702 37.704H3.29102V40.68H5.54702ZM15.6731 41.856C15.6731 42.48 15.5331 43.04 15.2531 43.536C14.9731 44.032 14.5891 44.42 14.1011 44.7C13.6211 44.98 13.0891 45.12 12.5051 45.12C11.9211 45.12 11.3851 44.98 10.8971 44.7C10.4171 44.42 10.0371 44.032 9.75714 43.536C9.47714 43.04 9.33714 42.48 9.33714 41.856C9.33714 41.232 9.47714 40.668 9.75714 40.164C10.0371 39.66 10.4171 39.268 10.8971 38.988C11.3851 38.708 11.9211 38.568 12.5051 38.568C13.0891 38.568 13.6211 38.708 14.1011 38.988C14.5891 39.268 14.9731 39.66 15.2531 40.164C15.5331 40.668 15.6731 41.232 15.6731 41.856ZM14.5331 41.856C14.5331 41.424 14.4411 41.04 14.2571 40.704C14.0811 40.36 13.8371 40.096 13.5251 39.912C13.2211 39.72 12.8811 39.624 12.5051 39.624C12.1291 39.624 11.7851 39.72 11.4731 39.912C11.1691 40.096 10.9251 40.36 10.7411 40.704C10.5651 41.04 10.4771 41.424 10.4771 41.856C10.4771 42.28 10.5651 42.66 10.7411 42.996C10.9251 43.332 11.1691 43.596 11.4731 43.788C11.7851 43.972 12.1291 44.064 12.5051 44.064C12.8811 44.064 13.2211 43.972 13.5251 43.788C13.8371 43.596 14.0811 43.332 14.2571 42.996C14.4411 42.66 14.5331 42.28 14.5331 41.856ZM18.8345 44.424C18.8345 44.584 18.7785 44.72 18.6665 44.832C18.5545 44.944 18.4185 45 18.2585 45C18.0985 45 17.9625 44.944 17.8505 44.832C17.7465 44.72 17.6945 44.584 17.6945 44.424V36.696C17.6945 36.536 17.7505 36.4 17.8625 36.288C17.9745 36.176 18.1105 36.12 18.2705 36.12C18.4305 36.12 18.5625 36.176 18.6665 36.288C18.7785 36.4 18.8345 36.536 18.8345 36.696V44.424ZM22.4696 44.424C22.4696 44.584 22.4136 44.72 22.3016 44.832C22.1896 44.944 22.0536 45 21.8936 45C21.7336 45 21.5976 44.944 21.4856 44.832C21.3816 44.72 21.3296 44.584 21.3296 44.424V36.696C21.3296 36.536 21.3856 36.4 21.4976 36.288C21.6096 36.176 21.7456 36.12 21.9056 36.12C22.0656 36.12 22.1976 36.176 22.3016 36.288C22.4136 36.4 22.4696 36.536 22.4696 36.696V44.424Z" fill="#B7B7B7"/>
<path d="M31.1808 40.584C31.3408 40.584 31.4728 40.64 31.5768 40.752C31.6888 40.864 31.7448 41 31.7448 41.16V43.86C31.7448 44.076 31.6488 44.244 31.4568 44.364C31.0888 44.604 30.6848 44.792 30.2448 44.928C29.8048 45.056 29.3528 45.12 28.8888 45.12C28.0888 45.12 27.3528 44.928 26.6808 44.544C26.0168 44.16 25.4928 43.64 25.1088 42.984C24.7248 42.32 24.5328 41.592 24.5328 40.8C24.5328 40.008 24.7248 39.284 25.1088 38.628C25.4928 37.964 26.0168 37.44 26.6808 37.056C27.3528 36.672 28.0888 36.48 28.8888 36.48C29.2888 36.48 29.6728 36.524 30.0408 36.612C30.4168 36.7 30.7528 36.832 31.0488 37.008C31.1448 37.064 31.2168 37.132 31.2648 37.212C31.3128 37.292 31.3368 37.38 31.3368 37.476C31.3368 37.636 31.2808 37.776 31.1688 37.896C31.0648 38.008 30.9368 38.064 30.7848 38.064C30.6648 38.064 30.5608 38.036 30.4728 37.98C29.9528 37.74 29.4248 37.62 28.8888 37.62C28.3128 37.62 27.7848 37.76 27.3048 38.04C26.8328 38.32 26.4568 38.704 26.1768 39.192C25.9048 39.68 25.7688 40.216 25.7688 40.8C25.7688 41.384 25.9048 41.92 26.1768 42.408C26.4568 42.888 26.8328 43.272 27.3048 43.56C27.7848 43.84 28.3128 43.98 28.8888 43.98C29.1608 43.98 29.4448 43.948 29.7408 43.884C30.0448 43.82 30.3048 43.736 30.5208 43.632V41.724H29.0688C28.9088 41.724 28.7728 41.672 28.6608 41.568C28.5488 41.456 28.4928 41.32 28.4928 41.16C28.4928 40.992 28.5488 40.856 28.6608 40.752C28.7728 40.64 28.9088 40.584 29.0688 40.584H31.1808ZM39.7645 41.856C39.7645 42.48 39.6245 43.04 39.3445 43.536C39.0645 44.032 38.6805 44.42 38.1925 44.7C37.7125 44.98 37.1805 45.12 36.5965 45.12C36.0125 45.12 35.4765 44.98 34.9885 44.7C34.5085 44.42 34.1285 44.032 33.8485 43.536C33.5685 43.04 33.4285 42.48 33.4285 41.856C33.4285 41.232 33.5685 40.668 33.8485 40.164C34.1285 39.66 34.5085 39.268 34.9885 38.988C35.4765 38.708 36.0125 38.568 36.5965 38.568C37.1805 38.568 37.7125 38.708 38.1925 38.988C38.6805 39.268 39.0645 39.66 39.3445 40.164C39.6245 40.668 39.7645 41.232 39.7645 41.856ZM38.6245 41.856C38.6245 41.424 38.5325 41.04 38.3485 40.704C38.1725 40.36 37.9285 40.096 37.6165 39.912C37.3125 39.72 36.9725 39.624 36.5965 39.624C36.2205 39.624 35.8765 39.72 35.5645 39.912C35.2605 40.096 35.0165 40.36 34.8325 40.704C34.6565 41.04 34.5685 41.424 34.5685 41.856C34.5685 42.28 34.6565 42.66 34.8325 42.996C35.0165 43.332 35.2605 43.596 35.5645 43.788C35.8765 43.972 36.2205 44.064 36.5965 44.064C36.9725 44.064 37.3125 43.972 37.6165 43.788C37.9285 43.596 38.1725 43.332 38.3485 42.996C38.5325 42.66 38.6245 42.28 38.6245 41.856ZM46.7899 36.12C46.9579 36.12 47.0939 36.176 47.1979 36.288C47.3099 36.392 47.3659 36.528 47.3659 36.696V44.424C47.3659 44.584 47.3099 44.72 47.1979 44.832C47.0939 44.944 46.9579 45 46.7899 45C46.6219 45 46.4859 44.948 46.3819 44.844C46.2779 44.732 46.2259 44.592 46.2259 44.424V44.088C46.0259 44.376 45.7419 44.62 45.3739 44.82C45.0139 45.02 44.6259 45.12 44.2099 45.12C43.6659 45.12 43.1739 44.98 42.7339 44.7C42.2939 44.42 41.9459 44.032 41.6899 43.536C41.4339 43.032 41.3059 42.468 41.3059 41.844C41.3059 41.22 41.4299 40.66 41.6779 40.164C41.9339 39.66 42.2819 39.268 42.7219 38.988C43.1619 38.708 43.6459 38.568 44.1739 38.568C44.5979 38.568 44.9899 38.656 45.3499 38.832C45.7099 39.008 46.0019 39.236 46.2259 39.516V36.696C46.2259 36.528 46.2779 36.392 46.3819 36.288C46.4859 36.176 46.6219 36.12 46.7899 36.12ZM44.3419 44.064C44.7179 44.064 45.0499 43.968 45.3379 43.776C45.6339 43.584 45.8619 43.32 46.0219 42.984C46.1899 42.648 46.2739 42.268 46.2739 41.844C46.2739 41.428 46.1899 41.052 46.0219 40.716C45.8619 40.372 45.6339 40.104 45.3379 39.912C45.0499 39.72 44.7179 39.624 44.3419 39.624C43.9659 39.624 43.6299 39.72 43.3339 39.912C43.0459 40.104 42.8179 40.372 42.6499 40.716C42.4899 41.052 42.4099 41.428 42.4099 41.844C42.4099 42.268 42.4899 42.648 42.6499 42.984C42.8179 43.32 43.0459 43.584 43.3339 43.776C43.6299 43.968 43.9659 44.064 44.3419 44.064Z" fill="#9FCDD0"/>
<defs>
<radialGradient id="paint0_angular" cx="0" cy="0" r="1" gradientUnits="userSpaceOnUse" gradientTransform="translate(25 20) rotate(90) scale(20)">
<stop offset="0.00552486" stop-color="#CEA678"/>
<stop offset="0.154696" stop-color="#CE7575"/>
<stop offset="0.292818" stop-color="#CF92C2"/>
<stop offset="0.41369" stop-color="#9C95CC"/>
<stop offset="0.584108" stop-color="#759ECE"/>
<stop offset="0.706487" stop-color="#75C9CE"/>
<stop offset="0.834596" stop-color="#75CEA3"/>
<stop offset="1" stop-color="#AAAAAA"/>
</radialGradient>
</defs>
</svg>
