<svg width="125" height="40" viewBox="0 0 125 40" fill="none" xmlns="http://www.w3.org/2000/svg">
<path d="M16.5359 6C18.0755 3.33334 21.9245 3.33333 23.4641 6L33.8564 24C35.396 26.6667 33.4715 30 30.3923 30H9.6077C6.5285 30 4.60399 26.6667 6.14359 24L16.5359 6Z" fill="url(#paint0_angular)"/>
<path d="M49.0784 12C49.785 12 50.4384 12.1933 51.0384 12.58C51.6384 12.9533 52.1117 13.4667 52.4584 14.12C52.8184 14.7733 52.9984 15.4933 52.9984 16.28C52.9984 17.0667 52.8184 17.7933 52.4584 18.46C52.1117 19.1267 51.6384 19.6533 51.0384 20.04C50.4384 20.4267 49.785 20.62 49.0784 20.62H45.3184V25.04C45.3184 25.3067 45.2317 25.5333 45.0584 25.72C44.885 25.9067 44.665 26 44.3984 26C44.1184 26 43.8917 25.9133 43.7184 25.74C43.5584 25.5533 43.4784 25.32 43.4784 25.04V12.96C43.4784 12.6933 43.5717 12.4667 43.7584 12.28C43.945 12.0933 44.1717 12 44.4384 12H49.0784ZM49.0784 18.8C49.4384 18.8 49.7717 18.6867 50.0784 18.46C50.385 18.22 50.625 17.9067 50.7984 17.52C50.985 17.1333 51.0784 16.72 51.0784 16.28C51.0784 15.6 50.8784 15.0267 50.4784 14.56C50.0917 14.08 49.625 13.84 49.0784 13.84H45.3184V18.8H49.0784ZM65.9552 20.76C65.9552 21.8 65.7219 22.7333 65.2552 23.56C64.7886 24.3867 64.1486 25.0333 63.3352 25.5C62.5352 25.9667 61.6486 26.2 60.6752 26.2C59.7019 26.2 58.8086 25.9667 57.9952 25.5C57.1952 25.0333 56.5619 24.3867 56.0952 23.56C55.6286 22.7333 55.3952 21.8 55.3952 20.76C55.3952 19.72 55.6286 18.78 56.0952 17.94C56.5619 17.1 57.1952 16.4467 57.9952 15.98C58.8086 15.5133 59.7019 15.28 60.6752 15.28C61.6486 15.28 62.5352 15.5133 63.3352 15.98C64.1486 16.4467 64.7886 17.1 65.2552 17.94C65.7219 18.78 65.9552 19.72 65.9552 20.76ZM64.0552 20.76C64.0552 20.04 63.9019 19.4 63.5952 18.84C63.3019 18.2667 62.8952 17.8267 62.3752 17.52C61.8686 17.2 61.3019 17.04 60.6752 17.04C60.0486 17.04 59.4752 17.2 58.9552 17.52C58.4486 17.8267 58.0419 18.2667 57.7352 18.84C57.4419 19.4 57.2952 20.04 57.2952 20.76C57.2952 21.4667 57.4419 22.1 57.7352 22.66C58.0419 23.22 58.4486 23.66 58.9552 23.98C59.4752 24.2867 60.0486 24.44 60.6752 24.44C61.3019 24.44 61.8686 24.2867 62.3752 23.98C62.8952 23.66 63.3019 23.22 63.5952 22.66C63.9019 22.1 64.0552 21.4667 64.0552 20.76ZM71.2241 25.04C71.2241 25.3067 71.1308 25.5333 70.9441 25.72C70.7575 25.9067 70.5308 26 70.2641 26C69.9975 26 69.7708 25.9067 69.5841 25.72C69.4108 25.5333 69.3241 25.3067 69.3241 25.04V12.16C69.3241 11.8933 69.4175 11.6667 69.6041 11.48C69.7908 11.2933 70.0175 11.2 70.2841 11.2C70.5508 11.2 70.7708 11.2933 70.9441 11.48C71.1308 11.6667 71.2241 11.8933 71.2241 12.16V25.04ZM77.2827 25.04C77.2827 25.3067 77.1894 25.5333 77.0027 25.72C76.8161 25.9067 76.5894 26 76.3227 26C76.0561 26 75.8294 25.9067 75.6427 25.72C75.4694 25.5333 75.3827 25.3067 75.3827 25.04V12.16C75.3827 11.8933 75.4761 11.6667 75.6627 11.48C75.8494 11.2933 76.0761 11.2 76.3427 11.2C76.6094 11.2 76.8294 11.2933 77.0027 11.48C77.1894 11.6667 77.2827 11.8933 77.2827 12.16V25.04Z" fill="#B7B7B7"/>
<path d="M91.8013 18.64C92.068 18.64 92.288 18.7333 92.4613 18.92C92.648 19.1067 92.7413 19.3333 92.7413 19.6V24.1C92.7413 24.46 92.5813 24.74 92.2613 24.94C91.648 25.34 90.9747 25.6533 90.2413 25.88C89.508 26.0933 88.7547 26.2 87.9813 26.2C86.648 26.2 85.4213 25.88 84.3013 25.24C83.1947 24.6 82.3213 23.7333 81.6813 22.64C81.0413 21.5333 80.7213 20.32 80.7213 19C80.7213 17.68 81.0413 16.4733 81.6813 15.38C82.3213 14.2733 83.1947 13.4 84.3013 12.76C85.4213 12.12 86.648 11.8 87.9813 11.8C88.648 11.8 89.288 11.8733 89.9013 12.02C90.528 12.1667 91.088 12.3867 91.5813 12.68C91.7413 12.7733 91.8613 12.8867 91.9413 13.02C92.0213 13.1533 92.0613 13.3 92.0613 13.46C92.0613 13.7267 91.968 13.96 91.7813 14.16C91.608 14.3467 91.3947 14.44 91.1413 14.44C90.9413 14.44 90.768 14.3933 90.6213 14.3C89.7547 13.9 88.8747 13.7 87.9813 13.7C87.0213 13.7 86.1413 13.9333 85.3413 14.4C84.5547 14.8667 83.928 15.5067 83.4613 16.32C83.008 17.1333 82.7813 18.0267 82.7813 19C82.7813 19.9733 83.008 20.8667 83.4613 21.68C83.928 22.48 84.5547 23.12 85.3413 23.6C86.1413 24.0667 87.0213 24.3 87.9813 24.3C88.4347 24.3 88.908 24.2467 89.4013 24.14C89.908 24.0333 90.3413 23.8933 90.7013 23.72V20.54H88.2813C88.0147 20.54 87.788 20.4533 87.6013 20.28C87.4147 20.0933 87.3213 19.8667 87.3213 19.6C87.3213 19.32 87.4147 19.0933 87.6013 18.92C87.788 18.7333 88.0147 18.64 88.2813 18.64H91.8013ZM106.108 20.76C106.108 21.8 105.874 22.7333 105.408 23.56C104.941 24.3867 104.301 25.0333 103.488 25.5C102.688 25.9667 101.801 26.2 100.828 26.2C99.8542 26.2 98.9609 25.9667 98.1476 25.5C97.3476 25.0333 96.7142 24.3867 96.2476 23.56C95.7809 22.7333 95.5476 21.8 95.5476 20.76C95.5476 19.72 95.7809 18.78 96.2476 17.94C96.7142 17.1 97.3476 16.4467 98.1476 15.98C98.9609 15.5133 99.8542 15.28 100.828 15.28C101.801 15.28 102.688 15.5133 103.488 15.98C104.301 16.4467 104.941 17.1 105.408 17.94C105.874 18.78 106.108 19.72 106.108 20.76ZM104.208 20.76C104.208 20.04 104.054 19.4 103.748 18.84C103.454 18.2667 103.048 17.8267 102.528 17.52C102.021 17.2 101.454 17.04 100.828 17.04C100.201 17.04 99.6276 17.2 99.1076 17.52C98.6009 17.8267 98.1942 18.2667 97.8876 18.84C97.5942 19.4 97.4476 20.04 97.4476 20.76C97.4476 21.4667 97.5942 22.1 97.8876 22.66C98.1942 23.22 98.6009 23.66 99.1076 23.98C99.6276 24.2867 100.201 24.44 100.828 24.44C101.454 24.44 102.021 24.2867 102.528 23.98C103.048 23.66 103.454 23.22 103.748 22.66C104.054 22.1 104.208 21.4667 104.208 20.76ZM117.816 11.2C118.096 11.2 118.323 11.2933 118.496 11.48C118.683 11.6533 118.776 11.88 118.776 12.16V25.04C118.776 25.3067 118.683 25.5333 118.496 25.72C118.323 25.9067 118.096 26 117.816 26C117.536 26 117.31 25.9133 117.136 25.74C116.963 25.5533 116.876 25.32 116.876 25.04V24.48C116.543 24.96 116.07 25.3667 115.456 25.7C114.856 26.0333 114.21 26.2 113.516 26.2C112.61 26.2 111.79 25.9667 111.056 25.5C110.323 25.0333 109.743 24.3867 109.316 23.56C108.89 22.72 108.676 21.78 108.676 20.74C108.676 19.7 108.883 18.7667 109.296 17.94C109.723 17.1 110.303 16.4467 111.036 15.98C111.77 15.5133 112.576 15.28 113.456 15.28C114.163 15.28 114.816 15.4267 115.416 15.72C116.016 16.0133 116.503 16.3933 116.876 16.86V12.16C116.876 11.88 116.963 11.6533 117.136 11.48C117.31 11.2933 117.536 11.2 117.816 11.2ZM113.736 24.44C114.363 24.44 114.916 24.28 115.396 23.96C115.89 23.64 116.27 23.2 116.536 22.64C116.816 22.08 116.956 21.4467 116.956 20.74C116.956 20.0467 116.816 19.42 116.536 18.86C116.27 18.2867 115.89 17.84 115.396 17.52C114.916 17.2 114.363 17.04 113.736 17.04C113.11 17.04 112.55 17.2 112.056 17.52C111.576 17.84 111.196 18.2867 110.916 18.86C110.65 19.42 110.516 20.0467 110.516 20.74C110.516 21.4467 110.65 22.08 110.916 22.64C111.196 23.2 111.576 23.64 112.056 23.96C112.55 24.28 113.11 24.44 113.736 24.44Z" fill="#9FCDD0"/>
<defs>
<radialGradient id="paint0_angular" cx="0" cy="0" r="1" gradientUnits="userSpaceOnUse" gradientTransform="translate(20 20) rotate(90) scale(20)">
<stop offset="0.00552486" stop-color="#CEA678"/>
<stop offset="0.154696" stop-color="#CE7575"/>
<stop offset="0.292818" stop-color="#CF92C2"/>
<stop offset="0.41369" stop-color="#9C95CC"/>
<stop offset="0.584108" stop-color="#759ECE"/>
<stop offset="0.706487" stop-color="#75C9CE"/>
<stop offset="0.834596" stop-color="#75CEA3"/>
<stop offset="1" stop-color="#AAAAAA"/>
</radialGradient>
</defs>
</svg>
