<svg width="125" height="40" viewBox="0 0 125 40" fill="none" xmlns="http://www.w3.org/2000/svg">
<path d="M16.5359 6C18.0755 3.33334 21.9245 3.33333 23.4641 6L33.8564 24C35.396 26.6667 33.4715 30 30.3923 30H9.6077C6.5285 30 4.60399 26.6667 6.14359 24L16.5359 6Z" fill="url(#paint0_angular)"/>
<path d="M50.0784 11C50.785 11 51.4384 11.1933 52.0384 11.58C52.6384 11.9533 53.1117 12.4667 53.4584 13.12C53.8184 13.7733 53.9984 14.4933 53.9984 15.28C53.9984 16.0667 53.8184 16.7933 53.4584 17.46C53.1117 18.1267 52.6384 18.6533 52.0384 19.04C51.4384 19.4267 50.785 19.62 50.0784 19.62H46.3184V24.04C46.3184 24.3067 46.2317 24.5333 46.0584 24.72C45.885 24.9067 45.665 25 45.3984 25C45.1184 25 44.8917 24.9133 44.7184 24.74C44.5584 24.5533 44.4784 24.32 44.4784 24.04V11.96C44.4784 11.6933 44.5717 11.4667 44.7584 11.28C44.945 11.0933 45.1717 11 45.4384 11H50.0784ZM50.0784 17.8C50.4384 17.8 50.7717 17.6867 51.0784 17.46C51.385 17.22 51.625 16.9067 51.7984 16.52C51.985 16.1333 52.0784 15.72 52.0784 15.28C52.0784 14.6 51.8784 14.0267 51.4784 13.56C51.0917 13.08 50.625 12.84 50.0784 12.84H46.3184V17.8H50.0784ZM66.9552 19.76C66.9552 20.8 66.7219 21.7333 66.2552 22.56C65.7886 23.3867 65.1486 24.0333 64.3352 24.5C63.5352 24.9667 62.6486 25.2 61.6752 25.2C60.7019 25.2 59.8086 24.9667 58.9952 24.5C58.1952 24.0333 57.5619 23.3867 57.0952 22.56C56.6286 21.7333 56.3952 20.8 56.3952 19.76C56.3952 18.72 56.6286 17.78 57.0952 16.94C57.5619 16.1 58.1952 15.4467 58.9952 14.98C59.8086 14.5133 60.7019 14.28 61.6752 14.28C62.6486 14.28 63.5352 14.5133 64.3352 14.98C65.1486 15.4467 65.7886 16.1 66.2552 16.94C66.7219 17.78 66.9552 18.72 66.9552 19.76ZM65.0552 19.76C65.0552 19.04 64.9019 18.4 64.5952 17.84C64.3019 17.2667 63.8952 16.8267 63.3752 16.52C62.8686 16.2 62.3019 16.04 61.6752 16.04C61.0486 16.04 60.4752 16.2 59.9552 16.52C59.4486 16.8267 59.0419 17.2667 58.7352 17.84C58.4419 18.4 58.2952 19.04 58.2952 19.76C58.2952 20.4667 58.4419 21.1 58.7352 21.66C59.0419 22.22 59.4486 22.66 59.9552 22.98C60.4752 23.2867 61.0486 23.44 61.6752 23.44C62.3019 23.44 62.8686 23.2867 63.3752 22.98C63.8952 22.66 64.3019 22.22 64.5952 21.66C64.9019 21.1 65.0552 20.4667 65.0552 19.76ZM72.2241 24.04C72.2241 24.3067 72.1308 24.5333 71.9441 24.72C71.7575 24.9067 71.5308 25 71.2641 25C70.9975 25 70.7708 24.9067 70.5841 24.72C70.4108 24.5333 70.3241 24.3067 70.3241 24.04V11.16C70.3241 10.8933 70.4175 10.6667 70.6041 10.48C70.7908 10.2933 71.0175 10.2 71.2841 10.2C71.5508 10.2 71.7708 10.2933 71.9441 10.48C72.1308 10.6667 72.2241 10.8933 72.2241 11.16V24.04ZM78.2827 24.04C78.2827 24.3067 78.1894 24.5333 78.0027 24.72C77.8161 24.9067 77.5894 25 77.3227 25C77.0561 25 76.8294 24.9067 76.6427 24.72C76.4694 24.5333 76.3827 24.3067 76.3827 24.04V11.16C76.3827 10.8933 76.4761 10.6667 76.6627 10.48C76.8494 10.2933 77.0761 10.2 77.3427 10.2C77.6094 10.2 77.8294 10.2933 78.0027 10.48C78.1894 10.6667 78.2827 10.8933 78.2827 11.16V24.04Z" fill="#DBDADA"/>
<path d="M92.8013 17.64C93.068 17.64 93.288 17.7333 93.4613 17.92C93.648 18.1067 93.7413 18.3333 93.7413 18.6V23.1C93.7413 23.46 93.5813 23.74 93.2613 23.94C92.648 24.34 91.9747 24.6533 91.2413 24.88C90.508 25.0933 89.7547 25.2 88.9813 25.2C87.648 25.2 86.4213 24.88 85.3013 24.24C84.1947 23.6 83.3213 22.7333 82.6813 21.64C82.0413 20.5333 81.7213 19.32 81.7213 18C81.7213 16.68 82.0413 15.4733 82.6813 14.38C83.3213 13.2733 84.1947 12.4 85.3013 11.76C86.4213 11.12 87.648 10.8 88.9813 10.8C89.648 10.8 90.288 10.8733 90.9013 11.02C91.528 11.1667 92.088 11.3867 92.5813 11.68C92.7413 11.7733 92.8613 11.8867 92.9413 12.02C93.0213 12.1533 93.0613 12.3 93.0613 12.46C93.0613 12.7267 92.968 12.96 92.7813 13.16C92.608 13.3467 92.3947 13.44 92.1413 13.44C91.9413 13.44 91.768 13.3933 91.6213 13.3C90.7547 12.9 89.8747 12.7 88.9813 12.7C88.0213 12.7 87.1413 12.9333 86.3413 13.4C85.5547 13.8667 84.928 14.5067 84.4613 15.32C84.008 16.1333 83.7813 17.0267 83.7813 18C83.7813 18.9733 84.008 19.8667 84.4613 20.68C84.928 21.48 85.5547 22.12 86.3413 22.6C87.1413 23.0667 88.0213 23.3 88.9813 23.3C89.4347 23.3 89.908 23.2467 90.4013 23.14C90.908 23.0333 91.3413 22.8933 91.7013 22.72V19.54H89.2813C89.0147 19.54 88.788 19.4533 88.6013 19.28C88.4147 19.0933 88.3213 18.8667 88.3213 18.6C88.3213 18.32 88.4147 18.0933 88.6013 17.92C88.788 17.7333 89.0147 17.64 89.2813 17.64H92.8013ZM107.108 19.76C107.108 20.8 106.874 21.7333 106.408 22.56C105.941 23.3867 105.301 24.0333 104.488 24.5C103.688 24.9667 102.801 25.2 101.828 25.2C100.854 25.2 99.9609 24.9667 99.1476 24.5C98.3476 24.0333 97.7142 23.3867 97.2476 22.56C96.7809 21.7333 96.5476 20.8 96.5476 19.76C96.5476 18.72 96.7809 17.78 97.2476 16.94C97.7142 16.1 98.3476 15.4467 99.1476 14.98C99.9609 14.5133 100.854 14.28 101.828 14.28C102.801 14.28 103.688 14.5133 104.488 14.98C105.301 15.4467 105.941 16.1 106.408 16.94C106.874 17.78 107.108 18.72 107.108 19.76ZM105.208 19.76C105.208 19.04 105.054 18.4 104.748 17.84C104.454 17.2667 104.048 16.8267 103.528 16.52C103.021 16.2 102.454 16.04 101.828 16.04C101.201 16.04 100.628 16.2 100.108 16.52C99.6009 16.8267 99.1942 17.2667 98.8876 17.84C98.5942 18.4 98.4476 19.04 98.4476 19.76C98.4476 20.4667 98.5942 21.1 98.8876 21.66C99.1942 22.22 99.6009 22.66 100.108 22.98C100.628 23.2867 101.201 23.44 101.828 23.44C102.454 23.44 103.021 23.2867 103.528 22.98C104.048 22.66 104.454 22.22 104.748 21.66C105.054 21.1 105.208 20.4667 105.208 19.76ZM118.816 10.2C119.096 10.2 119.323 10.2933 119.496 10.48C119.683 10.6533 119.776 10.88 119.776 11.16V24.04C119.776 24.3067 119.683 24.5333 119.496 24.72C119.323 24.9067 119.096 25 118.816 25C118.536 25 118.31 24.9133 118.136 24.74C117.963 24.5533 117.876 24.32 117.876 24.04V23.48C117.543 23.96 117.07 24.3667 116.456 24.7C115.856 25.0333 115.21 25.2 114.516 25.2C113.61 25.2 112.79 24.9667 112.056 24.5C111.323 24.0333 110.743 23.3867 110.316 22.56C109.89 21.72 109.676 20.78 109.676 19.74C109.676 18.7 109.883 17.7667 110.296 16.94C110.723 16.1 111.303 15.4467 112.036 14.98C112.77 14.5133 113.576 14.28 114.456 14.28C115.163 14.28 115.816 14.4267 116.416 14.72C117.016 15.0133 117.503 15.3933 117.876 15.86V11.16C117.876 10.88 117.963 10.6533 118.136 10.48C118.31 10.2933 118.536 10.2 118.816 10.2ZM114.736 23.44C115.363 23.44 115.916 23.28 116.396 22.96C116.89 22.64 117.27 22.2 117.536 21.64C117.816 21.08 117.956 20.4467 117.956 19.74C117.956 19.0467 117.816 18.42 117.536 17.86C117.27 17.2867 116.89 16.84 116.396 16.52C115.916 16.2 115.363 16.04 114.736 16.04C114.11 16.04 113.55 16.2 113.056 16.52C112.576 16.84 112.196 17.2867 111.916 17.86C111.65 18.42 111.516 19.0467 111.516 19.74C111.516 20.4467 111.65 21.08 111.916 21.64C112.196 22.2 112.576 22.64 113.056 22.96C113.55 23.28 114.11 23.44 114.736 23.44Z" fill="#B6EBEE"/>
<defs>
<radialGradient id="paint0_angular" cx="0" cy="0" r="1" gradientUnits="userSpaceOnUse" gradientTransform="translate(20 20) rotate(90) scale(20)">
<stop offset="0.00552486" stop-color="#CEA678"/>
<stop offset="0.154696" stop-color="#CE7575"/>
<stop offset="0.292818" stop-color="#CF92C2"/>
<stop offset="0.41369" stop-color="#9C95CC"/>
<stop offset="0.584108" stop-color="#759ECE"/>
<stop offset="0.706487" stop-color="#75C9CE"/>
<stop offset="0.834596" stop-color="#75CEA3"/>
<stop offset="1" stop-color="#AAAAAA"/>
</radialGradient>
</defs>
</svg>
