<svg width="24" height="24" viewBox="0 0 24 24" fill="none" xmlns="http://www.w3.org/2000/svg">
<path d="M20.41 20.7933L15.3349 8.42285C15.0535 7.73657 14.9107 7.01257 14.9107 6.27081V3.00092C14.9107 2.6488 15.0478 2.31775 15.2968 2.06873C15.6004 1.76514 15.7678 1.36139 15.7678 0.932007V0.46875C15.7678 0.209839 15.5577 0 15.299 0H8.75427C8.49536 0 8.28552 0.209839 8.28552 0.46875V0.932007C8.28552 1.36139 8.4527 1.76514 8.75629 2.06873C9.00531 2.31775 9.14246 2.6488 9.14246 3.0011V6.27081C9.14246 7.01257 8.99982 7.73657 8.7182 8.42285L7.32367 11.822C7.32312 11.8233 7.32257 11.8246 7.32202 11.8259L3.64306 20.7933C3.34845 21.5116 3.43066 22.3255 3.86316 22.9702C4.29565 23.6151 5.01727 24 5.79364 24H18.2595C19.0358 24 19.7576 23.6151 20.1901 22.9702C20.6224 22.3253 20.7047 21.5116 20.41 20.7933V20.7933ZM9.58557 8.77863C9.9137 7.979 10.08 7.13525 10.08 6.27081V3.00092C10.08 2.3985 9.8454 1.83197 9.41931 1.40588C9.29407 1.28064 9.22449 1.11438 9.22302 0.9375H14.8303C14.8288 1.11438 14.7592 1.28046 14.6338 1.40588C14.2079 1.83197 13.9731 2.39832 13.9731 3.00092V6.27063C13.9731 7.13507 14.1396 7.97882 14.4675 8.77844L15.5993 11.5371H8.4538L9.58557 8.77863ZM19.4114 22.448C19.1495 22.8386 18.7297 23.0625 18.2595 23.0625H5.79364C5.32361 23.0625 4.90375 22.8386 4.64172 22.448C4.44415 22.1534 4.36871 21.8117 4.41998 21.4748H5.19232C5.45105 21.4748 5.66107 21.2648 5.66107 21.006C5.66107 20.7471 5.45105 20.5373 5.19232 20.5373H4.76166L5.29999 19.2248H6.09064C6.34955 19.2248 6.55939 19.0148 6.55939 18.756C6.55939 18.4971 6.34955 18.2873 6.09064 18.2873H5.68469L6.22302 16.9748H7.03601C7.29492 16.9748 7.50476 16.7648 7.50476 16.506C7.50476 16.2471 7.29492 16.0373 7.03601 16.0373H6.60773L7.14624 14.7248H7.9812C8.24011 14.7248 8.44995 14.5148 8.44995 14.256C8.44995 13.9971 8.24011 13.7873 7.9812 13.7873H7.53076L8.06928 12.4748H15.9838L19.5427 21.1492C19.721 21.5841 19.6732 22.0576 19.4114 22.448V22.448Z" fill="white"/>
<path d="M18.0952 20.8225C17.9971 20.5829 17.7235 20.4682 17.4838 20.5662C17.2443 20.6643 17.1295 20.9379 17.2275 21.1776L17.23 21.1834C17.3044 21.3649 17.4792 21.4748 17.664 21.4748C17.7231 21.4748 17.7832 21.4636 17.8414 21.4398C18.0809 21.3417 18.1957 21.0679 18.0976 20.8284L18.0952 20.8225Z" fill="white"/>
<path d="M17.4327 19.2075L15.754 15.1158C15.6559 14.8763 15.3821 14.7617 15.1425 14.86C14.903 14.9582 14.7885 15.2321 14.8867 15.4716L16.5654 19.5633C16.6397 19.7448 16.8146 19.8543 16.9993 19.8543C17.0585 19.8543 17.1187 19.8431 17.1769 19.8191C17.4164 19.721 17.5311 19.447 17.4327 19.2075V19.2075Z" fill="white"/>
</svg>
