<svg width="24" height="24" viewBox="0 0 24 24" fill="none" xmlns="http://www.w3.org/2000/svg">
<path d="M12 0C5.38312 0 0 5.38312 0 12C0 18.6169 5.38312 24 12 24C18.6169 24 24 18.6169 24 12C24 5.38312 18.6169 0 12 0ZM23.109 13.7741L21.6521 11.3595L22.6575 8.4045C23.0396 9.53438 23.25 10.7426 23.25 12C23.25 12.6038 23.2009 13.1959 23.109 13.7741ZM20.2748 19.6118C20.2264 19.5994 20.1746 19.5956 20.1218 19.6042L16.4925 20.1863C16.4846 20.142 16.4711 20.0978 16.4464 20.0569L14.3831 16.6181L17.7191 11.4806H20.8796C20.8883 11.5211 20.8973 11.5613 20.919 11.5976L22.8825 14.8519C22.4104 16.6537 21.5006 18.2805 20.2748 19.6118ZM16.4929 20.9456L19.3759 20.4836C18.1241 21.5734 16.6305 22.3912 14.9861 22.8446L16.4929 20.9456ZM4.74375 3.4125C6.63975 1.80788 9.07162 0.820125 11.7292 0.75675C11.7487 0.8085 11.7765 0.85725 11.8192 0.89775L13.8911 2.853L13.0718 5.9115L7.73288 7.96088C7.71338 7.94513 7.698 7.92563 7.67512 7.91363L4.34888 6.15075L4.74375 3.4125ZM14.3948 2.2965L12.7886 0.78075C14.2571 0.883125 15.6491 1.26562 16.9095 1.87988L14.3948 2.2965ZM8.22375 14.5264L7.91775 8.69363L13.3706 6.6L17.0468 11.1397L13.8656 16.0384L8.22375 14.5264ZM22.2394 7.3485C22.2278 7.36875 22.2124 7.38525 22.2045 7.40812L21.0739 10.7306H17.6809L13.8307 5.97638L14.6231 3.01875L17.7244 2.50462C17.7904 2.49375 17.8455 2.46187 17.8942 2.42287C19.788 3.59287 21.3086 5.3085 22.2394 7.3485ZM3.86662 4.24013L3.56587 6.3255L1.56 7.81613C2.09812 6.47775 2.886 5.26688 3.86662 4.24013ZM1.146 9.04763C1.1625 9.039 1.17975 9.03375 1.19513 9.02213L4.0965 6.8655L7.15575 8.48663L7.48875 14.8376C7.4895 14.847 7.49363 14.8556 7.49475 14.865L4.6035 17.7259C4.57875 17.7503 4.56412 17.7803 4.54762 17.8091L1.77525 16.62C1.76475 16.6155 1.75388 16.6166 1.74338 16.6132C1.10738 15.2044 0.75 13.6436 0.75 12C0.75 10.9781 0.8895 9.98925 1.146 9.04763ZM2.27925 17.652L4.30988 18.5228L5.86275 21.4211C4.395 20.4615 3.165 19.1696 2.27925 17.652ZM7.06387 22.1066C7.05675 22.0826 7.0545 22.0575 7.04212 22.0346L5.04825 18.3131C5.07675 18.297 5.10638 18.2831 5.13075 18.2587L8.14087 15.2805L13.581 16.7385L15.8036 20.4431C15.8224 20.4742 15.8449 20.5009 15.8704 20.5245L13.827 23.0996C13.2319 23.1971 12.6221 23.25 12 23.25C10.23 23.25 8.55525 22.8379 7.06387 22.1066Z" fill="white"/>
</svg>
