<svg width="32" height="32" viewBox="0 0 32 32" fill="none" xmlns="http://www.w3.org/2000/svg">
<g filter="url(#filter0_d)">
<path d="M16 0C9.38312 0 4 5.38312 4 12C4 18.6169 9.38312 24 16 24C22.6169 24 28 18.6169 28 12C28 5.38312 22.6169 0 16 0ZM27.109 13.7741L25.6521 11.3595L26.6575 8.4045C27.0396 9.53438 27.25 10.7426 27.25 12C27.25 12.6038 27.2009 13.1959 27.109 13.7741ZM24.2748 19.6118C24.2264 19.5994 24.1746 19.5956 24.1218 19.6042L20.4925 20.1863C20.4846 20.142 20.4711 20.0978 20.4464 20.0569L18.3831 16.6181L21.7191 11.4806H24.8796C24.8883 11.5211 24.8973 11.5613 24.919 11.5976L26.8825 14.8519C26.4104 16.6537 25.5006 18.2805 24.2748 19.6118ZM20.4929 20.9456L23.3759 20.4836C22.1241 21.5734 20.6305 22.3912 18.9861 22.8446L20.4929 20.9456ZM8.74375 3.4125C10.6397 1.80788 13.0716 0.820125 15.7292 0.75675C15.7487 0.8085 15.7765 0.85725 15.8192 0.89775L17.8911 2.853L17.0718 5.9115L11.7329 7.96088C11.7134 7.94513 11.698 7.92563 11.6751 7.91363L8.34888 6.15075L8.74375 3.4125ZM18.3948 2.2965L16.7886 0.78075C18.2571 0.883125 19.6491 1.26562 20.9095 1.87988L18.3948 2.2965ZM12.2238 14.5264L11.9178 8.69363L17.3706 6.6L21.0468 11.1397L17.8656 16.0384L12.2238 14.5264ZM26.2394 7.3485C26.2278 7.36875 26.2124 7.38525 26.2045 7.40812L25.0739 10.7306H21.6809L17.8307 5.97638L18.6231 3.01875L21.7244 2.50462C21.7904 2.49375 21.8455 2.46187 21.8942 2.42287C23.788 3.59287 25.3086 5.3085 26.2394 7.3485ZM7.86662 4.24013L7.56587 6.3255L5.56 7.81613C6.09812 6.47775 6.886 5.26688 7.86662 4.24013ZM5.146 9.04763C5.1625 9.039 5.17975 9.03375 5.19513 9.02213L8.0965 6.8655L11.1558 8.48663L11.4887 14.8376C11.4895 14.847 11.4936 14.8556 11.4948 14.865L8.6035 17.7259C8.57875 17.7503 8.56412 17.7803 8.54762 17.8091L5.77525 16.62C5.76475 16.6155 5.75388 16.6166 5.74338 16.6132C5.10738 15.2044 4.75 13.6436 4.75 12C4.75 10.9781 4.8895 9.98925 5.146 9.04763ZM6.27925 17.652L8.30988 18.5228L9.86275 21.4211C8.395 20.4615 7.165 19.1696 6.27925 17.652ZM11.0639 22.1066C11.0567 22.0826 11.0545 22.0575 11.0421 22.0346L9.04825 18.3131C9.07675 18.297 9.10638 18.2831 9.13075 18.2587L12.1409 15.2805L17.581 16.7385L19.8036 20.4431C19.8224 20.4742 19.8449 20.5009 19.8704 20.5245L17.827 23.0996C17.2319 23.1971 16.6221 23.25 16 23.25C14.23 23.25 12.5552 22.8379 11.0639 22.1066Z" fill="white"/>
</g>
<defs>
<filter id="filter0_d" x="0" y="0" width="32" height="32" filterUnits="userSpaceOnUse" color-interpolation-filters="sRGB">
<feFlood flood-opacity="0" result="BackgroundImageFix"/>
<feColorMatrix in="SourceAlpha" type="matrix" values="0 0 0 0 0 0 0 0 0 0 0 0 0 0 0 0 0 0 127 0"/>
<feOffset dy="4"/>
<feGaussianBlur stdDeviation="2"/>
<feColorMatrix type="matrix" values="0 0 0 0 0 0 0 0 0 0 0 0 0 0 0 0 0 0 0.25 0"/>
<feBlend mode="normal" in2="BackgroundImageFix" result="effect1_dropShadow"/>
<feBlend mode="normal" in="SourceGraphic" in2="effect1_dropShadow" result="shape"/>
</filter>
</defs>
</svg>
