<svg width="24" height="24" viewBox="0 0 24 24" fill="none" xmlns="http://www.w3.org/2000/svg">
<path d="M20.4853 3.51469C18.2188 1.24823 15.2053 0 12 0C8.79464 0 5.78114 1.24823 3.51469 3.51469C1.24819 5.78119 0 8.79469 0 12C0 15.2053 1.24819 18.2188 3.51469 20.4853C5.78119 22.7518 8.79464 24 12 24C15.2053 24 18.2188 22.7518 20.4853 20.4853C22.7518 18.2188 24 15.2053 24 12C24 8.79469 22.7518 5.78123 20.4853 3.51469ZM12 22.5938C6.15858 22.5938 1.40625 17.8414 1.40625 12C1.40625 6.15858 6.15858 1.40625 12 1.40625C17.8414 1.40625 22.5938 6.15858 22.5938 12C22.5938 17.8414 17.8414 22.5938 12 22.5938Z" fill="#DCDCDC"/>
<path d="M17.7331 8.14966C17.4585 7.87516 17.0133 7.87516 16.7387 8.1497L10.5297 14.3587L7.26126 11.0903C6.98672 10.8157 6.5415 10.8157 6.2669 11.0903C5.99231 11.3648 5.99231 11.81 6.2669 12.0846L10.0325 15.8502C10.1698 15.9875 10.3498 16.0561 10.5297 16.0561C10.7096 16.0561 10.8896 15.9875 11.0268 15.8502L17.7331 9.14401C18.0077 8.86947 18.0077 8.42425 17.7331 8.14966Z" fill="#DCDCDC"/>
</svg>
