<svg width="24" height="24" viewBox="0 0 24 24" fill="none" xmlns="http://www.w3.org/2000/svg">
<path d="M12 0C5.38338 0 0 5.38292 0 12C0 18.6171 5.38338 24 12 24C18.6166 24 24 18.6171 24 12C24 5.38292 18.6166 0 12 0ZM12 23.0769C5.89246 23.0769 0.923077 18.1075 0.923077 12C0.923077 5.89246 5.89246 0.923077 12 0.923077C18.1075 0.923077 23.0769 5.89246 23.0769 12C23.0769 18.1075 18.1075 23.0769 12 23.0769Z" fill="#DCDCDC"/>
<path d="M17.6548 7.07815L10.5614 15.0581L6.288 11.6395C6.08954 11.4803 5.79831 11.5131 5.63954 11.7115C5.48031 11.9109 5.51261 12.2012 5.71154 12.3605L10.3269 16.0528C10.4118 16.1206 10.5138 16.1538 10.6154 16.1538C10.7428 16.1538 10.8697 16.1012 10.9606 15.9988L18.3452 7.69107C18.5146 7.50092 18.4975 7.20876 18.3069 7.03984C18.1158 6.86999 17.8246 6.88707 17.6548 7.07815Z" fill="#DCDCDC"/>
</svg>
