<svg width="24" height="24" viewBox="0 0 24 24" fill="none" xmlns="http://www.w3.org/2000/svg">
<g clip-path="url(#clip0)">
<path d="M6.26294 15.575C5.91989 15.304 5.48994 15.1547 5.05231 15.1547C4.45755 15.1547 3.9037 15.4189 3.53274 15.8798C3.20837 16.2833 3.06151 16.788 3.1194 17.301C3.17736 17.815 3.4338 18.2755 3.84138 18.5976C4.18442 18.8687 4.61423 19.018 5.05179 19.018C5.64699 19.018 6.20092 18.7533 6.57158 18.2919C6.89565 17.8891 7.04236 17.385 6.9847 16.8723C6.92688 16.3582 6.67059 15.8975 6.26294 15.575ZM5.88098 17.7367C5.67926 17.9879 5.37697 18.1321 5.05179 18.1321C4.80938 18.1321 4.58078 18.0527 4.39087 17.9026C4.17003 17.728 4.03121 17.4791 3.99983 17.2016C3.96867 16.9253 4.04797 16.653 4.22304 16.4353C4.42484 16.1845 4.72713 16.0407 5.05231 16.0407C5.29493 16.0407 5.52361 16.1201 5.71344 16.2701C5.93422 16.4447 6.07296 16.6937 6.10419 16.9714C6.13527 17.2475 6.05612 17.5192 5.88098 17.7367Z" fill="#C8C8C8"/>
<path d="M14.0534 11.0374C14.3457 11.0374 14.6282 10.9734 14.894 10.8468C15.3637 10.622 15.7166 10.2288 15.8874 9.73961C16.0573 9.25346 16.0267 8.73033 15.8015 8.267C15.4794 7.60291 14.7913 7.17377 14.0488 7.17377C13.7559 7.17377 13.4728 7.23801 13.2071 7.36478C12.7375 7.58881 12.3845 7.98169 12.2134 8.47108C12.0432 8.9576 12.0737 9.48081 12.2993 9.94436C12.6224 10.6084 13.311 11.0374 14.0534 11.0374ZM13.0497 8.76355C13.1423 8.49885 13.3336 8.28605 13.5885 8.16444C13.7341 8.09503 13.8889 8.05981 14.0487 8.05981C14.4541 8.05981 14.8292 8.29292 15.0044 8.65405C15.1258 8.90392 15.1423 9.18561 15.0509 9.44743C14.9584 9.71229 14.7667 9.92538 14.5122 10.0472C14.3671 10.1164 14.2127 10.1514 14.0533 10.1514C13.6475 10.1514 13.2717 9.91792 13.0958 9.55664C12.9745 9.30714 12.9581 9.02553 13.0497 8.76355Z" fill="#C8C8C8"/>
<path d="M9.23222 7.90652C9.37472 7.93872 9.52055 7.95504 9.66564 7.95504C10.5777 7.95504 11.3569 7.3382 11.5607 6.45415C11.6752 5.95287 11.5871 5.43682 11.3129 5.00089C11.0364 4.56156 10.6042 4.25617 10.0963 4.14113C9.95324 4.10864 9.80682 4.0921 9.66106 4.0921C8.74962 4.0921 7.97123 4.7096 7.7681 5.5935C7.65262 6.09441 7.74012 6.61054 8.01442 7.04677C8.29116 7.48669 8.72377 7.79208 9.23222 7.90652ZM8.63162 5.79227C8.74172 5.313 9.1651 4.97822 9.66106 4.97822C9.74073 4.97822 9.82114 4.9873 9.90022 5.00524C10.1773 5.06801 10.4126 5.23407 10.5629 5.47286C10.711 5.70817 10.7586 5.98654 10.697 6.2559C10.5884 6.72705 10.1546 7.06899 9.66557 7.06899C9.58612 7.06899 9.506 7.05998 9.42715 7.04219C9.15004 6.9798 8.91472 6.81388 8.76446 6.57509C8.61664 6.33992 8.56945 6.062 8.63162 5.79227Z" fill="#C8C8C8"/>
<path d="M5.71174 9.01181C6.11888 8.68921 6.37487 8.22839 6.43276 7.71427C6.49042 7.20169 6.344 6.69753 6.01979 6.29401C5.64824 5.83334 5.09394 5.56915 4.49918 5.56915C4.06199 5.56915 3.63248 5.71801 3.28936 5.98862C2.88215 6.31026 2.62601 6.77033 2.5679 7.28409C2.50986 7.79733 2.65665 8.30238 2.98146 8.70656C3.35271 9.16775 3.90708 9.43231 4.50251 9.43231C4.94007 9.43223 5.36958 9.28294 5.71174 9.01181ZM3.67199 8.15109C3.49655 7.93282 3.41717 7.66022 3.44848 7.38348C3.47979 7.10637 3.61845 6.85783 3.83849 6.68394C4.02832 6.5342 4.25685 6.45505 4.49926 6.45505C4.82473 6.45505 5.12769 6.59903 5.32963 6.84941C5.50425 7.06694 5.58341 7.33888 5.55232 7.6151C5.52109 7.89303 5.38228 8.14245 5.16158 8.31729C4.97263 8.46696 4.74469 8.54612 4.50258 8.54612C4.17674 8.54619 3.874 8.40206 3.67199 8.15109Z" fill="#C8C8C8"/>
<path d="M23.8305 4.67652C23.754 4.59929 23.6174 4.50722 23.4018 4.50722C23.1491 4.50722 22.4777 4.50722 18.4001 7.97697C18.3182 8.04667 18.2355 8.11733 18.1525 8.18851C17.4239 6.28802 16.1439 4.59368 14.4944 3.36813C12.6032 1.96294 10.3511 1.21977 7.98201 1.21918C7.98127 1.21918 7.98075 1.21918 7.98016 1.21918C6.38129 1.21918 4.43775 1.77783 2.90778 2.67739C1.03231 3.77992 -0.000370994 5.25445 -1.8084e-06 6.82917C0.000588888 8.73033 1.07285 9.52555 1.93446 10.1645C2.63702 10.6855 3.1919 11.097 3.1922 11.9989C3.19242 12.9006 2.63783 13.3118 1.93564 13.8323C1.07433 14.4709 0.00228714 15.2656 0.00287784 17.167C0.00332086 18.7415 1.03667 20.2164 2.9125 21.3199C4.44359 22.2206 6.38816 22.7804 7.98732 22.7809C7.98843 22.7809 7.98939 22.7809 7.99042 22.7809C10.8926 22.7809 13.6208 21.6607 15.6727 19.6265C17.6985 17.6184 18.8252 14.9566 18.8548 12.1202C19.5427 11.3374 20.2091 10.5594 20.8174 9.82629C21.8582 8.57209 22.6585 7.53719 23.1961 6.75046C23.9084 5.7084 24.2203 5.06926 23.8305 4.67652ZM15.049 18.9973C13.164 20.866 10.6576 21.8948 7.9905 21.8948C7.98969 21.8948 7.9885 21.8948 7.98769 21.8948C5.12968 21.894 0.889735 19.9084 0.888923 17.1667C0.88848 15.7116 1.65343 15.1445 2.46335 14.544C3.2204 13.9827 4.07846 13.3465 4.07817 11.9986C4.07772 10.6508 3.21944 10.0143 2.46217 9.45275C1.65188 8.85179 0.886486 8.2842 0.886043 6.82895C0.885674 5.14539 2.43389 3.98378 3.35685 3.44116C4.73746 2.62947 6.552 2.10515 7.98016 2.10515C7.98068 2.10515 7.98127 2.10515 7.98171 2.10515C10.1592 2.10574 12.2286 2.78844 13.9661 4.07926C15.5685 5.26988 16.7917 6.94125 17.436 8.80845C15.5143 10.4863 13.4335 12.4209 11.8838 13.9756C9.30989 14.3087 8.95924 16.0241 8.70288 17.2843C8.48462 18.3573 8.34292 18.8761 7.51469 18.9425C7.31061 18.9589 7.1444 19.1129 7.11258 19.3152C7.08068 19.5173 7.19151 19.7151 7.38068 19.7934C7.43391 19.8154 8.70066 20.333 10.1807 20.3331C10.1809 20.3331 10.181 20.3331 10.1812 20.3331C11.2125 20.3331 12.0972 20.0831 12.8107 19.5901C13.6898 18.9825 14.2858 18.0193 14.5854 16.7276C15.5979 15.7032 16.7549 14.4679 17.8989 13.1955C17.6356 15.3862 16.647 17.4132 15.049 18.9973ZM13.6953 16.6437C13.2258 18.5041 12.0446 19.4472 10.1811 19.4471C10.1811 19.4471 10.1808 19.4471 10.1807 19.4471C9.68927 19.4471 9.2187 19.3801 8.82308 19.2965C9.29564 18.8146 9.44324 18.0893 9.57105 17.461C9.81449 16.2643 10.0447 15.1317 11.9282 14.8626L13.6953 16.6437ZM19.8131 9.64694C18.0569 11.7393 15.9312 14.0889 14.1812 15.8754L13.9103 15.6023L12.715 14.3975C14.3016 12.8182 16.337 10.935 18.236 9.28684C18.4573 9.09471 18.6773 8.90503 18.8941 8.72014C21.0979 6.84061 22.2529 6.02265 22.842 5.66668C22.4902 6.25937 21.6797 7.42312 19.8131 9.64694Z" fill="#C8C8C8"/>
</g>
<defs>
<clipPath id="clip0">
<rect width="24" height="24" fill="white"/>
</clipPath>
</defs>
</svg>
