<svg width="24" height="24" viewBox="0 0 24 24" fill="none" xmlns="http://www.w3.org/2000/svg">
<path d="M23.4991 8.99442H1.47409C1.19778 8.99442 0.973511 9.21851 0.973511 9.49462V21.4991C0.973511 22.8776 2.0958 24 3.47633 24H21.4967C22.8773 24 23.9996 22.8776 23.9996 21.4991V9.49462C23.9996 9.21847 23.7754 8.99442 23.4991 8.99442ZM22.9985 21.499C22.9985 22.3263 22.3247 22.9996 21.4968 22.9996H3.47638C2.64842 22.9996 1.97468 22.3263 1.97468 21.499V9.99477H22.9985V21.499Z" fill="#C8C8C8"/>
<path d="M23.9836 4.36568L23.1316 1.1355C22.9354 0.350189 22.1325 -0.142978 21.3366 0.0370888L1.16774 4.81885C0.771289 4.90888 0.435893 5.14996 0.222652 5.49612C0.00941033 5.84223 -0.0536611 6.25038 0.0464366 6.64653L0.989505 10.3719C1.04558 10.598 1.24982 10.7491 1.47404 10.7491C1.51407 10.7491 1.55513 10.7451 1.59816 10.734C1.86547 10.667 2.02765 10.3949 1.95956 10.1268L1.90451 9.90977L23.6101 4.98194C23.7422 4.95094 23.8574 4.86888 23.9275 4.75287C23.9986 4.63681 24.0176 4.49674 23.9836 4.36568ZM1.65931 8.93938L1.01658 6.40344C0.983545 6.27139 1.00555 6.13535 1.07566 6.01929C1.14676 5.90427 1.25887 5.82422 1.39501 5.79219L21.5638 1.01147C21.5999 1.00246 21.6369 0.998477 21.6729 0.998477C21.8972 0.998477 22.1045 1.15252 22.1615 1.3836L22.8833 4.11964L1.65931 8.93938Z" fill="#C8C8C8"/>
<path d="M5.70287 9.04643C5.45457 8.9254 5.15625 9.0234 5.03011 9.27053L3.02782 13.272C2.90468 13.5191 3.00478 13.8192 3.25209 13.9433C3.32516 13.9793 3.40128 13.9963 3.47636 13.9963C3.65957 13.9963 3.83677 13.8952 3.92485 13.7192L5.92714 9.71774C6.05028 9.47057 5.95013 9.17046 5.70287 9.04643Z" fill="#C8C8C8"/>
<path d="M10.7076 9.04643C10.4603 8.9254 10.16 9.0234 10.0358 9.27053L8.03353 13.272C7.91039 13.5191 8.01049 13.8192 8.2578 13.9433C8.33086 13.9793 8.40698 13.9963 8.48207 13.9963C8.66528 13.9963 8.84248 13.8952 8.92957 13.7192L10.9319 9.71774C11.055 9.47057 10.9549 9.17046 10.7076 9.04643Z" fill="#C8C8C8"/>
<path d="M15.7132 9.04643C15.4669 8.9254 15.1666 9.0234 15.0414 9.27053L13.0391 13.272C12.916 13.5191 13.0161 13.8192 13.2634 13.9433C13.3365 13.9793 13.4126 13.9963 13.4877 13.9963C13.6709 13.9963 13.8481 13.8952 13.9352 13.7192L15.9375 9.71774C16.0606 9.47057 15.9605 9.17046 15.7132 9.04643Z" fill="#C8C8C8"/>
<path d="M20.7189 9.04643C20.4706 8.9254 20.1723 9.0234 20.0471 9.27053L18.0449 13.272C17.9217 13.5191 18.0218 13.8192 18.2691 13.9433C18.3422 13.9793 18.4183 13.9963 18.4934 13.9963C18.6766 13.9963 18.8538 13.8952 18.9409 13.7192L20.9432 9.71774C21.0663 9.47057 20.9662 9.17046 20.7189 9.04643Z" fill="#C8C8C8"/>
<path d="M23.4991 12.9959H1.47409C1.19778 12.9959 0.973511 13.22 0.973511 13.4961C0.973511 13.7722 1.19778 13.9963 1.47409 13.9963H23.4991C23.7764 13.9963 23.9997 13.7722 23.9997 13.4961C23.9997 13.22 23.7754 12.9959 23.4991 12.9959Z" fill="#C8C8C8"/>
<path d="M6.31459 8.12109L2.86668 4.67581C2.67146 4.48074 2.35409 4.48074 2.15887 4.67581C1.96365 4.87089 1.96365 5.18802 2.15887 5.38309L5.60677 8.82936C5.7049 8.92638 5.83301 8.97543 5.96117 8.97543C6.08933 8.97543 6.21745 8.92642 6.31459 8.82837C6.50981 8.63325 6.50981 8.31617 6.31459 8.12109Z" fill="#C8C8C8"/>
<path d="M11.2121 7.00967L7.76125 3.5644C7.56603 3.36932 7.24865 3.36932 7.05343 3.5644C6.85821 3.75947 6.85821 4.0766 7.05343 4.27167L10.5034 7.71695C10.6015 7.81397 10.7296 7.86302 10.8578 7.86302C10.9859 7.86302 11.114 7.81402 11.2122 7.71695C11.4074 7.52188 11.4074 7.20475 11.2121 7.00967Z" fill="#C8C8C8"/>
<path d="M16.1057 5.89826L12.6608 2.452C12.4656 2.25693 12.1482 2.25693 11.953 2.452C11.7577 2.64707 11.7577 2.9642 11.953 3.15928L15.3979 6.60554C15.496 6.70256 15.6241 6.75161 15.7523 6.75161C15.8804 6.75161 16.0085 6.70359 16.1057 6.60554C16.3009 6.41047 16.3009 6.09333 16.1057 5.89826Z" fill="#C8C8C8"/>
<path d="M20.9972 4.78785L17.5513 1.34159C17.3561 1.14651 17.0387 1.14651 16.8435 1.34159C16.6482 1.53666 16.6482 1.85379 16.8435 2.04886L20.2894 5.49513C20.3875 5.59215 20.5156 5.6412 20.6438 5.6412C20.7719 5.6412 20.9 5.5922 20.9972 5.49513C21.1924 5.30006 21.1924 4.98292 20.9972 4.78785Z" fill="#C8C8C8"/>
</svg>
