<svg width="24" height="24" viewBox="0 0 24 24" fill="none" xmlns="http://www.w3.org/2000/svg">
<path d="M23.3184 5.24932H20.1105C19.7985 4.03489 17.9453 3.07249 15.712 3.07249C13.4786 3.07249 11.6253 4.03489 11.3135 5.24932H10.1113L10.0314 3.49491C10.0088 3.04543 9.76416 2.60872 9.32552 2.235C8.88688 1.86129 8.27211 1.56575 7.55192 1.3824L2.20274 0.0348296C2.12085 0.013589 2.0324 0.00181681 1.94248 0.000194192C1.85257 -0.00142843 1.76298 0.00713078 1.67891 0.0253765C1.59483 0.0436222 1.51794 0.0711922 1.45268 0.106491C1.38741 0.14179 1.33508 0.184117 1.2987 0.231023C1.26232 0.277929 1.24262 0.328482 1.24073 0.379757C1.23885 0.431033 1.25481 0.482012 1.28772 0.529746C1.32062 0.57748 1.36979 0.62102 1.4324 0.657847C1.49501 0.694674 1.56981 0.724057 1.65247 0.744295L7.00148 2.08939C7.48612 2.21384 7.8995 2.41357 8.19434 2.66571C8.48917 2.91785 8.65354 3.21221 8.66863 3.51512L8.74762 5.24932H0.682054C0.561834 5.24735 0.442941 5.26407 0.338106 5.29767C0.233271 5.33128 0.146441 5.38051 0.0869143 5.44008C0.0273872 5.49966 -0.00259567 5.56735 0.000176167 5.6359C0.00294801 5.70445 0.0383698 5.77128 0.102649 5.82923L11.2334 16.0876V23.2228H7.82509C7.6443 23.2228 7.47092 23.2637 7.34309 23.3366C7.21525 23.4095 7.14344 23.5083 7.14344 23.6114C7.14344 23.7145 7.21525 23.8133 7.34309 23.8862C7.47092 23.9591 7.6443 24 7.82509 24H16.0049C16.1857 24 16.3591 23.9591 16.4869 23.8862C16.6148 23.8133 16.6866 23.7145 16.6866 23.6114C16.6866 23.5083 16.6148 23.4095 16.4869 23.3366C16.3591 23.2637 16.1857 23.2228 16.0049 23.2228H12.5967V16.2447L23.8981 5.825C23.9619 5.76773 23.9971 5.70163 23.9998 5.63381C24.0026 5.56599 23.9728 5.49902 23.9138 5.44013C23.8538 5.38072 23.7669 5.33163 23.6621 5.29805C23.5573 5.26447 23.4385 5.24763 23.3184 5.24932V5.24932ZM15.712 3.84972C17.1881 3.84972 18.4248 4.47209 18.7243 5.24932H12.6998C12.9994 4.47209 14.2359 3.84972 15.712 3.84972ZM8.78307 6.02655L8.91701 8.94116H5.08033L1.90502 6.02655H8.78307ZM9.42263 9.71839C9.48431 9.71839 9.54958 9.73238 9.61707 9.73238C9.62312 9.73238 9.62917 9.73345 9.63522 9.73335C9.69597 9.73248 9.75451 9.71839 9.80997 9.71839H18.0771L12.0002 15.3213L5.92328 9.71839H9.42263ZM18.9201 8.94116H10.2807L10.1468 6.02655H22.0954L18.9201 8.94116Z" fill="#DCDCDC"/>
</svg>
