<svg width="24" height="24" viewBox="0 0 24 24" fill="none" xmlns="http://www.w3.org/2000/svg">
<path d="M20.4848 3.51515C18.2172 1.24747 15.2071 0 12 0C8.79293 0 5.78283 1.24747 3.51515 3.51515C1.24747 5.78283 0 8.79293 0 12C0 15.2071 1.24747 18.2172 3.51515 20.4848C5.78283 22.7525 8.79293 24 12 24C15.2071 24 18.2172 22.7525 20.4848 20.4848C22.7525 18.2172 24 15.2071 24 12C24 8.79293 22.7525 5.78283 20.4848 3.51515ZM19.5202 19.5202C17.5101 21.5303 14.8384 22.6364 12 22.6364C9.16162 22.6364 6.4899 21.5303 4.4798 19.5202C0.333333 15.3737 0.333333 8.62626 4.4798 4.4798C6.4899 2.4697 9.16162 1.36364 12 1.36364C14.8384 1.36364 17.5101 2.4697 19.5202 4.4798C23.6667 8.62626 23.6667 15.3737 19.5202 19.5202Z" fill="#DCDCDC"/>
<path d="M17.2879 6.71211C17.0202 6.44443 16.5909 6.44443 16.3232 6.71211L12 11.0353L7.67676 6.71211C7.40909 6.44443 6.97979 6.44443 6.71212 6.71211C6.44444 6.97979 6.44444 7.40908 6.71212 7.67676L11.0353 12L6.71212 16.3232C6.44444 16.5909 6.44444 17.0202 6.71212 17.2879C6.84343 17.4192 7.0202 17.4899 7.19191 17.4899C7.36363 17.4899 7.5404 17.4242 7.67171 17.2879L11.9949 12.9646L16.3182 17.2879C16.4495 17.4192 16.6262 17.4899 16.798 17.4899C16.9747 17.4899 17.1464 17.4242 17.2778 17.2879C17.5454 17.0202 17.5454 16.5909 17.2778 16.3232L12.9646 12L17.2879 7.67676C17.5555 7.40908 17.5555 6.97979 17.2879 6.71211Z" fill="#DCDCDC"/>
</svg>
