<svg width="24" height="24" viewBox="0 0 24 24" fill="none" xmlns="http://www.w3.org/2000/svg">
<rect width="24" height="24" fill="white"/>
<path d="M23.9603 7.49676C23.61 3.64084 20.8807 0.843296 17.4652 0.843296C15.1896 0.843296 13.1061 2.06783 11.9338 4.0304C10.772 2.04244 8.77389 0.842834 6.53483 0.842834C3.11971 0.842834 0.390018 3.64038 0.0401518 7.4963C0.0124579 7.66661 -0.101087 8.56297 0.244164 10.0247C0.741731 12.1332 1.89103 14.051 3.56697 15.5695L11.9282 23.1572L20.433 15.57C22.109 14.051 23.2583 12.1336 23.7558 10.0247C24.1011 8.56343 23.9875 7.66707 23.9603 7.49676ZM22.8572 9.81335C22.403 11.739 21.3501 13.4934 19.8154 14.8836L11.9338 21.9156L4.18731 14.8855C2.64984 13.4925 1.59747 11.7385 1.14283 9.81289C0.816043 8.42958 0.950358 7.64815 0.95082 7.64307L0.957743 7.59646C1.25776 4.21826 3.60297 1.76596 6.53483 1.76596C8.69819 1.76596 10.6026 3.09527 11.5064 5.23463L11.9315 6.24222L12.3566 5.23463C13.246 3.12804 15.251 1.76643 17.4656 1.76643C20.397 1.76643 22.7427 4.21872 23.0487 7.64077C23.0496 7.64815 23.1839 8.43004 22.8572 9.81335Z" fill="#919191"/>
<path d="M7.38457 3.64822C4.83951 3.64822 2.76892 5.7188 2.76892 8.26387C2.76892 8.51912 2.97524 8.72544 3.23049 8.72544C3.48574 8.72544 3.69205 8.51912 3.69205 8.26387C3.69205 6.22791 5.34861 4.57135 7.38457 4.57135C7.63982 4.57135 7.84614 4.36503 7.84614 4.10979C7.84614 3.85454 7.63936 3.64822 7.38457 3.64822Z" fill="#919191"/>
</svg>
